<svg width="326" height="371" viewBox="0 0 326 371" fill="none" xmlns="http://www.w3.org/2000/svg">
<g clip-path="url(#clip0_2_2)">
<rect x="36" y="16" width="257" height="336" rx="7" fill="white" stroke="black" stroke-width="6"/>
<rect x="46" y="26" width="237" height="316" rx="7" fill="white" stroke="black" stroke-width="6"/>
<path d="M177 91.0122C177 83.1055 166.879 75.6125 151.362 70.9658C154.943 55.4931 153.351 43.1831 146.338 39.242C144.722 38.3175 142.832 37.8796 140.768 37.8796V43.3048C141.912 43.3048 142.832 43.5237 143.603 43.9373C146.985 45.8349 148.452 53.0603 147.308 62.3537C147.035 64.6405 146.587 67.049 146.04 69.5061C141.166 68.3384 135.844 67.4382 130.249 66.8544C126.892 62.3537 123.411 58.2665 119.904 54.6903C128.011 47.3189 135.62 43.2804 140.793 43.2804V37.8553C133.954 37.8553 125.002 42.6236 115.95 50.8951C106.898 42.6722 97.9462 37.9526 91.1076 37.9526V43.3778C96.2552 43.3778 103.89 47.3919 111.996 54.7146C108.515 58.2909 105.033 62.3537 101.726 66.8544C96.106 67.4382 90.7843 68.3384 85.9103 69.5305C85.3384 67.0976 84.9156 64.7378 84.6172 62.4753C83.4484 53.182 84.8907 45.9565 88.2479 44.0346C88.9939 43.5967 89.9637 43.4021 91.1076 43.4021V37.9769C89.0188 37.9769 87.1288 38.4148 85.4876 39.3393C78.4998 43.2804 76.9331 55.5661 80.5389 70.9901C65.0713 75.6611 55 83.1299 55 91.0122C55 98.9188 65.1211 106.412 80.6384 111.058C77.0575 126.531 78.649 138.841 85.6616 142.782C87.278 143.707 89.168 144.145 91.2568 144.145C98.0954 144.145 107.048 139.376 116.099 131.105C125.151 139.328 134.104 144.047 140.942 144.047C143.031 144.047 144.921 143.609 146.562 142.685C153.55 138.744 155.117 126.458 151.511 111.034C166.929 106.388 177 98.8945 177 91.0122V91.0122ZM144.622 74.7853C143.702 77.9236 142.558 81.1593 141.265 84.3949C140.246 82.4487 139.177 80.5024 138.008 78.5562C136.864 76.6099 135.645 74.7123 134.427 72.8634C137.958 73.3743 141.365 74.0068 144.622 74.7853ZM133.233 100.695C131.294 103.979 129.304 107.093 127.24 109.988C123.535 110.304 119.78 110.475 116 110.475C112.245 110.475 108.49 110.304 104.81 110.012C102.746 107.117 100.731 104.028 98.7917 100.768C96.9018 97.5807 95.1859 94.3451 93.6192 91.0851C95.161 87.8252 96.9018 84.5652 98.7668 81.3782C100.706 78.0939 102.696 74.9799 104.76 72.0849C108.465 71.7686 112.22 71.5983 116 71.5983C119.755 71.5983 123.51 71.7686 127.19 72.0606C129.254 74.9556 131.269 78.0453 133.208 81.3052C135.098 84.4922 136.814 87.7279 138.381 90.9878C136.814 94.2478 135.098 97.5077 133.233 100.695ZM141.265 97.5321C142.608 100.792 143.752 104.052 144.697 107.215C141.439 107.993 138.008 108.65 134.452 109.161C135.67 107.288 136.889 105.366 138.033 103.395C139.177 101.449 140.246 99.4783 141.265 97.5321ZM116.05 123.49C113.737 121.155 111.424 118.552 109.137 115.705C111.375 115.802 113.662 115.875 115.975 115.875C118.313 115.875 120.625 115.827 122.888 115.705C120.65 118.552 118.338 121.155 116.05 123.49ZM97.5483 109.161C94.0171 108.65 90.6103 108.017 87.3526 107.239C88.2727 104.101 89.4166 100.865 90.7097 97.6294C91.7293 99.5756 92.7986 101.522 93.9674 103.468C95.1362 105.414 96.3298 107.312 97.5483 109.161ZM115.925 58.5342C118.238 60.8697 120.551 63.4728 122.839 66.3191C120.6 66.2218 118.313 66.1489 116 66.1489C113.662 66.1489 111.35 66.1975 109.087 66.3191C111.325 63.4728 113.638 60.8697 115.925 58.5342ZM97.5234 72.8634C96.3049 74.7367 95.0864 76.6586 93.9425 78.6292C92.7986 80.5754 91.7293 82.5217 90.7097 84.4679C89.3669 81.2079 88.223 77.948 87.278 74.7853C90.5357 74.0311 93.9674 73.3743 97.5234 72.8634V72.8634ZM75.0183 103.322C66.2153 99.6486 60.5206 94.8317 60.5206 91.0122C60.5206 87.1926 66.2153 82.3514 75.0183 78.7021C77.157 77.802 79.4945 76.9992 81.9066 76.245C83.3241 81.0133 85.1892 85.9762 87.5018 91.0608C85.214 96.1211 83.3738 101.06 81.9813 105.804C79.5194 105.049 77.1818 104.222 75.0183 103.322ZM88.3971 138.087C85.0151 136.189 83.5479 128.964 84.6918 119.671C84.9654 117.384 85.413 114.975 85.9601 112.518C90.8341 113.686 96.1557 114.586 101.751 115.17C105.108 119.671 108.589 123.758 112.096 127.334C103.989 134.705 96.3795 138.744 91.2071 138.744C90.0881 138.72 89.1431 138.501 88.3971 138.087V138.087ZM147.383 119.549C148.552 128.842 147.109 136.068 143.752 137.99C143.006 138.428 142.036 138.622 140.892 138.622C135.745 138.622 128.11 134.608 120.004 127.285C123.485 123.709 126.967 119.646 130.274 115.146C135.894 114.562 141.216 113.662 146.09 112.47C146.662 114.927 147.109 117.286 147.383 119.549V119.549ZM156.957 103.322C154.818 104.222 152.481 105.025 150.068 105.779C148.651 101.011 146.786 96.0481 144.473 90.9635C146.761 85.9033 148.601 80.9647 149.994 76.2207C152.456 76.9748 154.793 77.802 156.982 78.7021C165.785 82.3757 171.479 87.1926 171.479 91.0122C171.455 94.8317 165.76 99.673 156.957 103.322V103.322Z" fill="black"/>
<path d="M115.975 102.13C122.252 102.13 127.34 97.1524 127.34 91.0122C127.34 84.8719 122.252 79.8942 115.975 79.8942C109.699 79.8942 104.611 84.8719 104.611 91.0122C104.611 97.1524 109.699 102.13 115.975 102.13Z" fill="black"/>
<rect x="80" y="317" width="189" height="13" rx="2" fill="black"/>
<rect x="63" y="297" width="197" height="13" rx="2" fill="black"/>
<rect x="110" y="257" width="141" height="13" rx="2" fill="black"/>
<rect x="88" y="217" width="163" height="13" rx="2" fill="black"/>
<rect x="88" y="197" width="149" height="13" rx="2" fill="black"/>
<rect x="88" y="175" width="123" height="13" rx="2" fill="black"/>
<rect x="151" y="153" width="123" height="13" rx="2" fill="black"/>
<rect x="181" y="38" width="90" height="13" rx="2" fill="black"/>
<rect x="215" y="58" width="56" height="13" rx="2" fill="black"/>
</g>
<defs>
<clipPath id="clip0_2_2">
<rect width="371" height="326" fill="white" transform="translate(0 371) rotate(-90)"/>
</clipPath>
</defs>
</svg>
